HIERARCHY
ROOT Hips
{
  OFFSET -0.589095 22.1471 2.58842
  CHANNELS 6 Xposition Yposition Zposition Zrotation Xrotation Yrotation
  JOINT BN_Bip01_Pelvis
  {
    OFFSET -3.49357 -5.29363 -0.000213444
    CHANNELS 6 Xposition Yposition Zposition Zrotation Xrotation Yrotation
    JOINT BN_leg_R_01
    {
      OFFSET 10.8127 -7.82778 -6.29737
      CHANNELS 6 Xposition Yposition Zposition Zrotation Xrotation Yrotation
      JOINT BN_leg_R_02
      {
        OFFSET 8.91071 0 0
        CHANNELS 6 Xposition Yposition Zposition Zrotation Xrotation Yrotation
        JOINT BN_leg_R_03
        {
          OFFSET 15.6024 0 0
          CHANNELS 6 Xposition Yposition Zposition Zrotation Xrotation Yrotation
          JOINT BN_leg_R_04
          {
            OFFSET 9.68174 0 0
            CHANNELS 6 Xposition Yposition Zposition Zrotation Xrotation Yrotation
            JOINT BN_leg_R_05
            {
              OFFSET 10.6982 0 0
              CHANNELS 6 Xposition Yposition Zposition Zrotation Xrotation Yrotation
              JOINT BN_Leg_R_05Nub
              {
                OFFSET 11.1504 0 0
                CHANNELS 6 Xposition Yposition Zposition Zrotation Xrotation Yrotation
                End Site
                {
                  OFFSET 0 0 0
                }
              }
            }
          }
        }
      }
    }
    JOINT BN_leg_R_06
    {
      OFFSET 6.51511 -7.99898 -4.29089
      CHANNELS 6 Xposition Yposition Zposition Zrotation Xrotation Yrotation
      JOINT BN_Leg_R_07
      {
        OFFSET 9.03709 0 0
        CHANNELS 6 Xposition Yposition Zposition Zrotation Xrotation Yrotation
        JOINT BN_Leg_R_08
        {
          OFFSET 18.7638 0 0
          CHANNELS 6 Xposition Yposition Zposition Zrotation Xrotation Yrotation
          JOINT BN_Leg_R_09
          {
            OFFSET 10.9666 0 0
            CHANNELS 6 Xposition Yposition Zposition Zrotation Xrotation Yrotation
            JOINT BN_Leg_R_10
            {
              OFFSET 10.8726 0 0
              CHANNELS 6 Xposition Yposition Zposition Zrotation Xrotation Yrotation
              JOINT BN_Leg_R_10Nub
              {
                OFFSET 11.2648 0 0
                CHANNELS 6 Xposition Yposition Zposition Zrotation Xrotation Yrotation
                End Site
                {
                  OFFSET 0 0 0
                }
              }
            }
          }
        }
      }
    }
    JOINT BN_Leg_R_11
    {
      OFFSET 2.71429 -8.18693 -0.209972
      CHANNELS 6 Xposition Yposition Zposition Zrotation Xrotation Yrotation
      JOINT BN_Leg_R_12
      {
        OFFSET 9.8713 0 0
        CHANNELS 6 Xposition Yposition Zposition Zrotation Xrotation Yrotation
        JOINT BN_Leg_R_13
        {
          OFFSET 21.8657 0 0
          CHANNELS 6 Xposition Yposition Zposition Zrotation Xrotation Yrotation
          JOINT BN_Leg_R_14
          {
            OFFSET 11.0011 0 0
            CHANNELS 6 Xposition Yposition Zposition Zrotation Xrotation Yrotation
            JOINT BN_Leg_R_15
            {
              OFFSET 12.8798 0 0
              CHANNELS 6 Xposition Yposition Zposition Zrotation Xrotation Yrotation
              JOINT BN_Leg_R_15Nub
              {
                OFFSET 13.0642 0 0
                CHANNELS 6 Xposition Yposition Zposition Zrotation Xrotation Yrotation
                End Site
                {
                  OFFSET 0 0 0
                }
              }
            }
          }
        }
      }
    }
    JOINT BN_Leg_L_11
    {
      OFFSET 2.7143 8.18692 -0.209982
      CHANNELS 6 Xposition Yposition Zposition Zrotation Xrotation Yrotation
      JOINT BN_Leg_L_12
      {
        OFFSET 9.87129 0 0
        CHANNELS 6 Xposition Yposition Zposition Zrotation Xrotation Yrotation
        JOINT BN_Leg_L_13
        {
          OFFSET 21.8657 0 0
          CHANNELS 6 Xposition Yposition Zposition Zrotation Xrotation Yrotation
          JOINT BN_Leg_L_14
          {
            OFFSET 11.0011 0 0
            CHANNELS 6 Xposition Yposition Zposition Zrotation Xrotation Yrotation
            JOINT BN_Leg_L_15
            {
              OFFSET 12.8798 0 0
              CHANNELS 6 Xposition Yposition Zposition Zrotation Xrotation Yrotation
              JOINT BN_Leg_L_15Nub
              {
                OFFSET 13.0642 0 0
                CHANNELS 6 Xposition Yposition Zposition Zrotation Xrotation Yrotation
                End Site
                {
                  OFFSET 0 0 0
                }
              }
            }
          }
        }
      }
    }
    JOINT BN_leg_L_06
    {
      OFFSET 6.51511 7.99896 -4.29091
      CHANNELS 6 Xposition Yposition Zposition Zrotation Xrotation Yrotation
      JOINT BN_Leg_L_07
      {
        OFFSET 9.03709 0 0
        CHANNELS 6 Xposition Yposition Zposition Zrotation Xrotation Yrotation
        JOINT BN_Leg_L_08
        {
          OFFSET 18.7638 0 0
          CHANNELS 6 Xposition Yposition Zposition Zrotation Xrotation Yrotation
          JOINT BN_Leg_L_09
          {
            OFFSET 10.9666 0 0
            CHANNELS 6 Xposition Yposition Zposition Zrotation Xrotation Yrotation
            JOINT BN_Leg_L_10
            {
              OFFSET 10.8726 0 0
              CHANNELS 6 Xposition Yposition Zposition Zrotation Xrotation Yrotation
              JOINT BN_Leg_L_10Nub
              {
                OFFSET 11.2649 0 0
                CHANNELS 6 Xposition Yposition Zposition Zrotation Xrotation Yrotation
                End Site
                {
                  OFFSET 0 0 0
                }
              }
            }
          }
        }
      }
    }
    JOINT BN_leg_L_01
    {
      OFFSET 10.8127 7.82776 -6.29737
      CHANNELS 6 Xposition Yposition Zposition Zrotation Xrotation Yrotation
      JOINT BN_leg_L_02
      {
        OFFSET 8.91072 0 0
        CHANNELS 6 Xposition Yposition Zposition Zrotation Xrotation Yrotation
        JOINT BN_leg_L_03
        {
          OFFSET 15.6024 0 0
          CHANNELS 6 Xposition Yposition Zposition Zrotation Xrotation Yrotation
          JOINT BN_leg_L_04
          {
            OFFSET 9.68174 0 0
            CHANNELS 6 Xposition Yposition Zposition Zrotation Xrotation Yrotation
            JOINT BN_leg_L_05
            {
              OFFSET 10.6982 0 0
              CHANNELS 6 Xposition Yposition Zposition Zrotation Xrotation Yrotation
              JOINT BN_Leg_L_05Nub
              {
                OFFSET 11.1504 0 0
                CHANNELS 6 Xposition Yposition Zposition Zrotation Xrotation Yrotation
                End Site
                {
                  OFFSET 0 0 0
                }
              }
            }
          }
        }
      }
    }
    JOINT BN_Eye_L_01
    {
      OFFSET 28.5502 2.54627 -3.93739
      CHANNELS 6 Xposition Yposition Zposition Zrotation Xrotation Yrotation
      JOINT BN_Eye_L_02
      {
        OFFSET 2.30267 0 0
        CHANNELS 6 Xposition Yposition Zposition Zrotation Xrotation Yrotation
        JOINT BN_Eye_L_03
        {
          OFFSET 5.31894 0 0
          CHANNELS 6 Xposition Yposition Zposition Zrotation Xrotation Yrotation
          JOINT BN_Eye_L_04
          {
            OFFSET 9.71244 0 0
            CHANNELS 6 Xposition Yposition Zposition Zrotation Xrotation Yrotation
            End Site
            {
              OFFSET 0 0 0
            }
          }
        }
      }
    }
    JOINT BN_Eye_R_01
    {
      OFFSET 28.5502 -2.54612 -3.93738
      CHANNELS 6 Xposition Yposition Zposition Zrotation Xrotation Yrotation
      JOINT BN_Eye_R_02
      {
        OFFSET 2.30267 0 0
        CHANNELS 6 Xposition Yposition Zposition Zrotation Xrotation Yrotation
        JOINT BN_Eye_R_03
        {
          OFFSET 5.31896 0 0
          CHANNELS 6 Xposition Yposition Zposition Zrotation Xrotation Yrotation
          JOINT BN_Eye_R_04
          {
            OFFSET 9.71244 0 0
            CHANNELS 6 Xposition Yposition Zposition Zrotation Xrotation Yrotation
            End Site
            {
              OFFSET 0 0 0
            }
          }
        }
      }
    }
    JOINT BN_Arm_L_01
    {
      OFFSET 15.9737 8.03546 -8.36195
      CHANNELS 6 Xposition Yposition Zposition Zrotation Xrotation Yrotation
      JOINT BN_Arm_L_02
      {
        OFFSET 16.8869 0 0
        CHANNELS 6 Xposition Yposition Zposition Zrotation Xrotation Yrotation
        JOINT BN_Arm_L_03
        {
          OFFSET 8.42975 0 0
          CHANNELS 6 Xposition Yposition Zposition Zrotation Xrotation Yrotation
          JOINT BN_Arm_L_04
          {
            OFFSET 7.53864 -0.0312023 2.09083
            CHANNELS 6 Xposition Yposition Zposition Zrotation Xrotation Yrotation
            End Site
            {
              OFFSET 0 0 0
            }
          }
        }
      }
    }
    JOINT BN_Arm_R_01
    {
      OFFSET 14.7806 -6.70232 -9.44366
      CHANNELS 6 Xposition Yposition Zposition Zrotation Xrotation Yrotation
      JOINT BN_Arm_R_02
      {
        OFFSET 19.9827 0 0
        CHANNELS 6 Xposition Yposition Zposition Zrotation Xrotation Yrotation
        JOINT BN_Arm_R_03
        {
          OFFSET 17.4553 0 0
          CHANNELS 6 Xposition Yposition Zposition Zrotation Xrotation Yrotation
          JOINT BN_Arm_R_04
          {
            OFFSET 13.3834 -2.22657 7.3982
            CHANNELS 6 Xposition Yposition Zposition Zrotation Xrotation Yrotation
            End Site
            {
              OFFSET 0 0 0
            }
          }
        }
      }
    }
  }
}
MOTION
Frames:	4
Frame Time:	0.0333333
-0.589095 22.1471 2.58842 0.00348704 -2.1352e-019 90 -3.49357 -5.29363 -0.000213444 -130.683 -80.0574 170.583 10.8127 -7.82778 -6.29737 -133.903 28.3015 31.5569 8.91071 1.90735e-006 1.33227e-014 50.6455 -0.198363 0.99533 15.6024 2.32458e-006 -3.55271e-015 -58.9353 -1.43128 6.53538 9.68174 1.42109e-014 6.21725e-015 -14.3787 0.721693 -9.09424 10.6982 -3.8147e-006 -4.44089e-015 -27.1455 4.11665 0.954661 11.1504 -7.10543e-015 0 4.68302e-007 1.62228e-009 -4.81693e-009 6.51511 -7.99898 -4.29089 -147.778 20.2355 22.2045 9.03709 -1.90735e-006 -2.83122e-007 102.603 -2.395 -2.84642 18.7638 1.43051e-006 2.38419e-007 -116.419 2.91489 8.55701 10.9666 3.8147e-006 -8.88178e-016 -11.4393 -0.660425 -0.319196 10.8726 7.6294e-006 1.33227e-014 -10.0366 -0.0133862 -1.36684 11.2648 -7.6294e-006 1.95399e-014 -9.89122e-006 9.761e-006 -2.48825e-007 2.71429 -8.18693 -0.209972 -162.423 30.8153 12.4782 9.8713 3.55271e-015 4.76837e-007 122.38 1.44439 -0.39105 21.8657 3.55271e-015 4.44089e-015 -132.249 -3.17921 -14.4351 11.0011 7.10542e-015 -1.77636e-015 -22.5589 -0.354402 -0.922979 12.8798 -1.24345e-013 -1.90735e-006 -32.6525 -0.0111915 0.0368786 13.0642 7.62939e-006 1.90735e-006 5.79953e-007 1.05883e-005 1.02901e-005 2.7143 8.18692 -0.209982 113.48 -46.6754 -26.6247 9.87129 -7.10543e-015 2.38419e-007 -90.6401 -1.55541 -0.629804 21.8657 -4.76837e-007 -7.15256e-007 128.349 3.8234 -18.0565 11.0011 -3.8147e-006 -8.08242e-014 18.8714 0.333856 -0.828324 12.8798 0 -1.43051e-006 28.1621 0.0219479 0.0623349 13.0642 -7.6294e-006 -3.33786e-006 -1.14562e-005 1.04457e-005 8.52807e-007 6.51511 7.99896 -4.29091 117.303 -31.9273 5.54828 9.03709 3.8147e-006 4.21885e-015 -78.8979 1.92302 -2.87081 18.7638 2.86102e-006 -8.88178e-016 85.8191 1.1263 -2.107 10.9666 7.10542e-015 1.77636e-015 36.4157 0.403885 -1.99579 10.8726 -7.10542e-015 -4.76837e-007 34.6103 0.0152444 -3.18461 11.2649 3.81469e-006 -3.10862e-015 -1.02165e-005 6.55463e-007 9.16768e-007 10.8127 7.82776 -6.29737 125 -36.9234 26.4042 8.91072 -3.55271e-015 4.76837e-007 -61.2049 -0.0415841 1.29999 15.6024 1.43051e-006 2.38419e-006 67.0845 2.28945 3.77557 9.68174 1.90735e-006 -8.88178e-016 14.1045 -0.743021 -9.01636 10.6982 -3.8147e-006 -1.43051e-006 26.7977 -4.1158 0.988037 11.1504 2.84217e-014 4.76837e-007 8.67232e-007 1.03373e-005 2.48432e-007 28.5502 2.54627 -3.93739 90.6285 -40.2064 55.5559 2.30267 -3.8147e-006 -1.42109e-014 -36.7123 -0.210727 6.21187 5.31894 -3.8147e-006 9.53674e-007 -29.0714 -0.352561 3.5473 9.71244 9.53674e-007 -3.9968e-015 -11.4529 -1.17507 8.39953 28.5502 -2.54612 -3.93738 90.5495 -39.6797 129.214 2.30267 -3.8147e-006 1.95399e-014 -33.8321 -4.62823 2.96413 5.31896 0 8.88179e-016 -28.9199 2.6943 11.1205 9.71244 -1.95399e-014 2.86102e-006 -15.0081 -0.316807 3.47563 15.9737 8.03546 -8.36195 44.5024 49.9421 26.6 16.8869 -1.33227e-014 1.90735e-006 -101.951 0.0228928 -0.362262 8.42975 7.10543e-015 -3.8147e-006 -41.6024 7.68162 -4.65124 7.53864 -0.0312023 2.09083 -12.3265 -1.66566 21.4043 14.7806 -6.70232 -9.44366 -7.09529 -78.3891 64.4691 19.9827 9.53674e-007 -1.90735e-006 62.9618 2.47007 2.77422 17.4553 7.6294e-006 -1.90735e-006 79.2646 4.51575 -0.492701 13.3834 -2.22657 7.3982 8.8737 1.22081 9.37367 
-0.589095 22.1567 2.58842 0.00348704 -2.1352e-019 90 -3.49357 -5.29363 -0.000213444 -130.665 -80.0569 170.623 10.8127 -7.82778 -6.29737 -135.091 27.3023 31.7392 8.91071 1.90735e-006 1.77636e-014 50.0118 -0.211256 0.97837 15.6024 2.32458e-006 -5.32907e-015 -52.5718 -0.934728 7.96728 9.68174 1.42109e-014 5.32907e-015 -17.2308 0.485216 -9.90311 10.6982 -3.8147e-006 -5.32907e-015 -30.7406 4.11667 0.544161 11.1504 -2.13163e-014 -3.55271e-015 4.68302e-007 1.62227e-009 -4.81692e-009 6.51511 -7.99898 -4.29089 -149.028 20.2395 22.2408 9.03709 -1.90735e-006 -2.83122e-007 105.181 -2.44226 -2.80147 18.7638 1.43051e-006 2.38419e-007 -118.316 3.1235 8.52162 10.9666 3.8147e-006 3.55271e-015 -12.2869 -0.653178 -0.369301 10.8726 7.6294e-006 1.24345e-014 -10.8515 -0.0141292 -1.44166 11.2648 -7.6294e-006 1.42109e-014 -9.89122e-006 9.761e-006 -2.48825e-007 2.71429 -8.18693 -0.209972 -161.535 30.6509 12.2771 9.8713 -3.55271e-015 4.76837e-007 121.838 1.45472 -0.399501 21.8657 -5.32907e-015 1.77636e-015 -130.544 -4.14293 -14.8386 11.0011 7.10542e-015 1.77636e-015 -24.8893 -0.367495 -0.980024 12.8798 -1.13687e-013 -1.90735e-006 -35.4725 -0.00283308 0.022026 13.0642 7.62939e-006 1.90735e-006 5.79939e-007 1.05883e-005 1.02901e-005 2.7143 8.18692 -0.209982 113.589 -46.6452 -26.5565 9.87129 3.55271e-015 2.38419e-007 -90.5556 -1.55632 -0.628947 21.8657 -4.76837e-007 -7.15256e-007 129.236 3.82185 -18.4007 11.0011 -3.8147e-006 -8.79297e-014 18.5665 0.33028 -0.819419 12.8798 0 -1.43051e-006 27.7908 0.0231219 0.0654705 13.0642 -7.6294e-006 -3.33786e-006 -1.14562e-005 1.04457e-005 8.52783e-007 6.51511 7.99896 -4.29091 117.732 -31.9415 5.76657 9.03709 3.8147e-006 5.77316e-015 -80.1086 1.94536 -2.88443 18.7638 2.86102e-006 -1.77636e-015 87.5508 1.19065 -2.23058 10.9666 0 0 37.0682 0.393547 -2.03899 10.8726 -7.10542e-015 -4.76837e-007 35.2598 0.0143229 -3.22314 11.2649 3.81469e-006 -4.44089e-015 -1.02165e-005 6.55463e-007 9.16767e-007 10.8127 7.82776 -6.29737 124.933 -36.9922 26.4066 8.91072 -3.55271e-015 4.76837e-007 -61.75 -0.0597431 1.313 15.6024 1.43051e-006 2.38419e-006 66.8736 2.32992 3.55967 9.68174 1.90735e-006 3.55271e-015 13.574 -0.788615 -8.86448 10.6982 -3.8147e-006 -1.43051e-006 26.132 -4.11638 1.06351 11.1504 -7.10543e-015 4.76837e-007 8.67232e-007 1.03373e-005 2.48432e-007 28.5502 2.54627 -3.93739 90.5844 -40.202 55.4882 2.30267 -3.8147e-006 -1.24345e-014 -36.6352 -0.272994 6.21216 5.31894 -3.8147e-006 9.53674e-007 -28.7853 -0.469734 3.34968 9.71244 9.53674e-007 -5.32907e-015 -11.5059 -1.1744 8.38887 28.5502 -2.54612 -3.93738 90.5032 -39.6294 129.043 2.30267 -3.8147e-006 1.77636e-014 -33.862 -4.60994 2.84058 5.31896 -1.06581e-014 4.44089e-015 -28.993 2.68404 11.0779 9.71244 -1.24345e-014 2.86102e-006 -15.0856 -0.322164 3.47148 15.9737 8.03546 -8.36195 44.5228 49.9487 26.5844 16.8869 -1.06581e-014 1.90735e-006 -101.951 0.0196965 -0.331104 8.42975 7.10543e-015 -3.8147e-006 -41.5984 7.70691 -4.64943 7.53864 -0.0312023 2.09083 -12.3248 -1.6787 21.464 14.7806 -6.70232 -9.44366 -6.78559 -78.4419 64.7535 19.9827 9.53674e-007 -1.90735e-006 63.0767 2.49371 2.75894 17.4553 7.6294e-006 -1.90735e-006 79.0282 4.51453 -0.486082 13.3834 -2.22657 7.3982 8.87362 1.22135 9.37713 
-0.589095 22.1909 2.58842 0.00348704 -2.1352e-019 90 -3.49357 -5.29363 -0.000213444 -130.585 -80.0608 170.776 10.8127 -7.82778 -6.29737 -136.23 26.321 31.9232 8.91071 1.90735e-006 1.59872e-014 49.6054 -0.217432 0.963418 15.6024 2.32458e-006 -4.44089e-015 -47.2215 -0.361801 9.18943 9.68174 0 0 -19.5915 0.281387 -10.5435 10.6982 -3.8147e-006 -6.21725e-015 -33.6552 4.11758 0.192713 11.1504 -2.13163e-014 1.77636e-015 4.68302e-007 1.62227e-009 -4.81692e-009 6.51511 -7.99898 -4.29089 -150.347 20.2598 22.2612 9.03709 -1.90735e-006 -2.83122e-007 107.743 -2.48735 -2.75131 18.7638 1.43051e-006 2.38419e-007 -120.218 3.33865 8.51904 10.9666 3.8147e-006 1.77636e-015 -13.0987 -0.644926 -0.423127 10.8726 7.6294e-006 1.86517e-014 -11.6372 -0.0146752 -1.51383 11.2648 -7.6294e-006 1.68754e-014 -9.89122e-006 9.761e-006 -2.48825e-007 2.71429 -8.18693 -0.209972 -160.497 30.3603 12.0819 9.8713 3.55271e-015 4.76837e-007 121.042 1.46961 -0.410958 21.8657 -3.55271e-015 -1.77636e-015 -129.46 -4.99623 -15.2477 11.0011 1.42108e-014 7.10543e-015 -26.7053 -0.378887 -1.02472 12.8798 -1.20792e-013 -1.90735e-006 -37.6556 0.00348506 0.0126294 13.0642 7.62939e-006 1.90735e-006 -9.43793e-006 1.05883e-005 1.02901e-005 2.7143 8.18692 -0.209982 113.914 -46.6094 -26.3665 9.87129 -3.55271e-015 2.38419e-007 -90.4249 -1.55771 -0.630127 21.8657 -4.76837e-007 -7.15256e-007 129.698 3.80754 -18.568 11.0011 -3.8147e-006 -8.26006e-014 18.3926 0.328627 -0.814907 12.8798 -7.10543e-015 -1.43051e-006 27.578 0.0244507 0.068566 13.0642 -7.6294e-006 -3.33786e-006 -1.14562e-005 1.04457e-005 8.52783e-007 6.51511 7.99896 -4.29091 118.211 -31.9581 5.98854 9.03709 3.8147e-006 3.55271e-015 -81.3315 1.97102 -2.89836 18.7638 2.86102e-006 -2.66454e-015 89.1301 1.26267 -2.31323 10.9666 -2.13163e-014 4.44089e-016 37.9389 0.383169 -2.09232 10.8726 1.42108e-014 -4.76837e-007 36.1263 0.0148834 -3.27221 11.2649 3.81469e-006 -5.32907e-015 -1.02165e-005 6.55463e-007 9.16767e-007 10.8127 7.82776 -6.29737 124.895 -37.0512 26.4115 8.91072 -7.10543e-015 4.76837e-007 -62.4017 -0.0800013 1.33375 15.6024 1.43051e-006 2.38419e-006 67.3626 2.36045 3.16452 9.68174 1.90735e-006 8.88178e-016 12.49 -0.875246 -8.5381 10.6982 -3.8147e-006 -1.43051e-006 24.7303 -4.1151 1.2096 11.1504 -7.10543e-015 4.76837e-007 8.67232e-007 1.03373e-005 2.48432e-007 28.5502 2.54627 -3.93739 90.474 -40.1868 55.3087 2.30267 -3.8147e-006 -1.59872e-014 -36.5428 -0.398261 6.21053 5.31894 -3.8147e-006 9.53674e-007 -28.5112 -0.60445 3.00708 9.71244 9.53674e-007 3.55272e-015 -11.6641 -1.16538 8.36073 28.5502 -2.54612 -3.93738 90.4498 -39.5762 128.872 2.30267 -3.8147e-006 2.39808e-014 -33.9374 -4.54846 2.71625 5.31896 0 2.66454e-015 -29.2052 2.65665 10.952 9.71244 -2.57572e-014 2.86102e-006 -15.2317 -0.342755 3.45815 15.9737 8.03546 -8.36195 44.5454 49.956 26.5671 16.8869 -7.9936e-015 1.90735e-006 -101.951 0.0182984 -0.293519 8.42975 7.10543e-015 -3.8147e-006 -41.5869 7.73749 -4.6422 7.53864 -0.0312023 2.09083 -12.323 -1.69186 21.5243 14.7806 -6.70232 -9.44366 -6.43526 -78.536 65.0347 19.9827 9.53674e-007 -1.90735e-006 63.2049 2.5664 2.71335 17.4553 7.6294e-006 -1.90735e-006 78.794 4.51455 -0.466779 13.3834 -2.22657 7.3982 8.87343 1.223 9.38763 
-0.589095 22.2432 2.58842 0.00348704 -2.1352e-019 90 -3.49357 -5.29363 -0.000213444 -130.428 -80.0687 171.044 10.8127 -7.82778 -6.29737 -137.318 25.3658 32.1113 8.91071 1.90735e-006 1.59872e-014 49.449 -0.220196 0.959976 15.6024 2.32458e-006 -4.44089e-015 -42.7609 0.241763 10.2481 9.68174 1.42109e-014 2.66453e-015 -21.6173 0.108758 -11.0835 10.6982 -3.8147e-006 -4.44089e-015 -36.1468 4.11643 -0.110079 11.1504 -7.10543e-015 -3.55271e-015 4.68302e-007 1.62227e-009 -4.81693e-009 6.51511 -7.99898 -4.29089 -151.67 20.308 22.2605 9.03709 -1.90735e-006 -2.83122e-007 110.171 -2.52777 -2.69859 18.7638 1.43051e-006 2.38419e-007 -121.886 3.58362 8.55273 10.9666 3.8147e-006 2.66453e-015 -14.0232 -0.637751 -0.487164 10.8726 7.6294e-006 2.66454e-014 -12.5393 -0.0154716 -1.58847 11.2648 -7.6294e-006 8.88179e-015 -9.89122e-006 9.761e-006 -2.48825e-007 2.71429 -8.18693 -0.209972 -159.38 29.9738 11.9093 9.8713 -3.55271e-015 4.76837e-007 120.051 1.48395 -0.42396 21.8657 -5.32907e-015 8.88178e-016 -128.685 -5.73449 -15.5975 11.0011 0 -3.55271e-015 -28.1742 -0.386696 -1.05975 12.8798 -1.10134e-013 -1.90735e-006 -39.4201 0.00955927 0.00486588 13.0642 7.62939e-006 1.90735e-006 -9.43797e-006 1.05883e-005 1.02901e-005 2.7143 8.18692 -0.209982 114.417 -46.557 -26.0767 9.87129 -3.55271e-015 2.38419e-007 -90.258 -1.55951 -0.633322 21.8657 -4.76837e-007 -7.15256e-007 129.747 3.79786 -18.5743 11.0011 -3.8147e-006 -9.76996e-014 18.3681 0.328807 -0.814825 12.8798 7.10543e-015 -1.43051e-006 27.5459 0.0244131 0.0685812 13.0642 -7.6294e-006 -3.33786e-006 -1.14562e-005 1.04457e-005 8.52783e-007 6.51511 7.99896 -4.29091 118.73 -31.9782 6.21179 9.03709 3.8147e-006 3.77476e-015 -82.5306 1.99645 -2.91149 18.7638 2.86102e-006 -1.77636e-015 90.5916 1.32839 -2.37128 10.9666 -1.42108e-014 2.66454e-015 38.9296 0.369454 -2.15589 10.8726 -1.42108e-014 -4.76837e-007 37.1121 0.0162031 -3.32595 11.2649 3.81469e-006 2.22045e-016 -1.02165e-005 6.55463e-007 9.16767e-007 10.8127 7.82776 -6.29737 124.897 -37.0957 26.4267 8.91072 -3.55271e-015 4.76837e-007 -63.0993 -0.0989913 1.35095 15.6024 1.43051e-006 2.38419e-006 68.3876 2.39001 2.66471 9.68174 1.90735e-006 7.99361e-015 11.0299 -0.990285 -8.0909 10.6982 -3.8147e-006 -1.43051e-006 22.829 -4.11786 1.39936 11.1504 0 4.76837e-007 8.67232e-007 1.03373e-005 2.48432e-007 28.5502 2.54627 -3.93739 90.3031 -40.1636 55.0239 2.30267 -3.8147e-006 -1.06581e-014 -36.4458 -0.575054 6.20939 5.31894 -3.8147e-006 9.53674e-007 -28.254 -0.75147 2.54109 9.71244 9.53674e-007 -2.66454e-015 -11.9096 -1.15133 8.31964 28.5502 -2.54612 -3.93738 90.3973 -39.5231 128.711 2.30267 -3.8147e-006 2.84217e-014 -34.0475 -4.45401 2.59645 5.31896 3.55271e-015 -4.44089e-015 -29.5366 2.61267 10.7585 9.71244 -1.42109e-014 2.86102e-006 -15.4336 -0.370556 3.43712 15.9737 8.03546 -8.36195 44.5755 49.9656 26.5441 16.8869 -1.15463e-014 1.90735e-006 -101.951 0.0137583 -0.24968 8.42975 -1.06581e-014 -3.8147e-006 -41.5685 7.76794 -4.62795 7.53864 -0.0312023 2.09083 -12.3212 -1.70477 21.5833 14.7806 -6.70232 -9.44366 -6.10375 -78.6645 65.26 19.9827 9.53674e-007 -1.90735e-006 63.3429 2.67873 2.64301 17.4553 7.6294e-006 -1.90735e-006 78.5732 4.51567 -0.435888 13.3834 -2.22657 7.3982 8.87287 1.22505 9.40106 
